<?xml version="1.0" encoding="UTF-8"?>
<svg version="1.1" xmlns="http://www.w3.org/2000/svg" width="500" height="500">
<path d="M0 0 C0.66510007 -0.00297112 1.33020015 -0.00594224 2.01545477 -0.0090034 C4.22511932 -0.01761554 6.43472923 -0.01919227 8.64440918 -0.02069092 C10.23684808 -0.02532455 11.82928588 -0.03034993 13.42172241 -0.03573608 C17.73622664 -0.04881296 22.05071534 -0.05529626 26.36523628 -0.05974674 C29.06715729 -0.06268618 31.76907414 -0.06679269 34.47099304 -0.07125092 C42.94296196 -0.08491584 51.41492126 -0.0945864 59.88690042 -0.09845281 C69.63188871 -0.10292581 79.37673619 -0.12044271 89.12168169 -0.1494534 C96.67613776 -0.17115381 104.23055446 -0.18116159 111.78504133 -0.18249393 C116.28640133 -0.18353634 120.7876288 -0.18932257 125.28895569 -0.20731354 C129.53093434 -0.22393861 133.77268291 -0.22588069 138.01468277 -0.21717453 C139.55967455 -0.2164117 141.10467944 -0.22064544 142.64963913 -0.23063278 C167.18042056 -0.37973254 188.19929986 6.85700877 206.28308105 23.82794189 C222.47475736 40.80945607 229.06891909 62.34569802 229.25427246 85.40289307 C229.26577835 86.39036026 229.27728424 87.37782745 229.28913879 88.3952179 C229.32574633 91.65791804 229.35553229 94.92063556 229.38464355 98.18341064 C229.40785163 100.50741248 229.43124209 102.83141249 229.45480347 105.15541077 C229.50327396 110.05363592 229.54812364 114.9518789 229.59069824 119.85015869 C229.63369739 124.75485406 229.68205357 129.65944108 229.73620605 134.56402588 C230.01739092 160.10221392 230.16755362 185.63716576 229.79426193 211.17528725 C229.76133026 213.47978318 229.73259636 215.78434379 229.70851517 218.0889492 C229.39003827 246.58376356 225.02699973 271.10923385 204.03308105 292.14044189 C203.42077637 292.76434814 202.80847168 293.38825439 202.1776123 294.03106689 C185.17531883 310.12705475 162.6361056 314.45689081 140.03771973 314.4151001 C138.46424622 314.41945744 136.89077483 314.42464396 135.31730652 314.43058777 C131.07745148 314.44387992 126.83768611 314.44456739 122.59781432 314.44202447 C119.0421142 314.44094796 115.48643172 314.44585545 111.93073541 314.45062989 C103.53311495 314.4616915 95.13553924 314.46218156 86.73791504 314.45611572 C78.111686 314.45007999 69.48562024 314.4623845 60.85941905 314.48368579 C53.41950329 314.50137347 45.97963917 314.50729186 38.53970319 314.50404805 C34.1110863 314.50224625 29.68258587 314.50475982 25.25398827 314.51876259 C21.08497687 314.53145351 16.91621763 314.52929194 12.74720955 314.5163517 C11.22963242 314.51401056 9.7120369 314.51663053 8.1944809 314.52497482 C-15.75640509 314.64702693 -37.80686466 307.95812741 -55.21691895 290.94512939 C-73.66773341 272.12739532 -79.11072605 250.01420523 -79.12805176 224.26373291 C-79.1326866 222.65468738 -79.13771215 221.04564293 -79.14309692 219.43659973 C-79.1561626 215.08069943 -79.16265496 210.7248145 -79.16710758 206.36889768 C-79.17004901 203.63965162 -79.17415588 200.91040967 -79.17861176 198.1811657 C-79.19227409 189.61949483 -79.20194576 181.05783346 -79.20581365 172.49615246 C-79.2102852 162.65554394 -79.22779639 152.81507495 -79.25681424 142.97450882 C-79.27853213 135.34102113 -79.28852336 127.7075724 -79.28985476 120.07405418 C-79.290896 115.52793269 -79.29665628 110.98194257 -79.31467438 106.43585396 C-79.33132992 102.15035548 -79.33322723 97.86508465 -79.32453537 93.57956505 C-79.32377412 92.02089954 -79.32798455 90.4622209 -79.33799362 88.90358734 C-79.48700455 64.218741 -73.46383687 41.56003335 -55.84191895 23.45294189 C-41.03150886 8.80732973 -20.86729495 0.05245069 0 0 Z " fill="#3E5066" transform="translate(177.9669189453125,95.85955810546875)"/>
<path d="M0 0 C1.32212494 -0.01441132 1.32212494 -0.01441132 2.67095947 -0.02911377 C3.62613464 -0.03336365 4.58130981 -0.03761353 5.56542969 -0.04199219 C6.54719177 -0.04769226 7.52895386 -0.05339233 8.54046631 -0.05926514 C10.62185587 -0.06872356 12.70326047 -0.07525245 14.78466797 -0.07910156 C17.96055498 -0.08878562 21.135789 -0.11979238 24.31152344 -0.15136719 C26.33365501 -0.15789937 28.35579122 -0.163149 30.37792969 -0.16699219 C31.32500793 -0.17933899 32.27208618 -0.19168579 33.24786377 -0.20440674 C38.44092116 -0.18697448 42.36860922 0.0247861 46.73730469 3.16113281 C48.20825195 5.49462891 48.20825195 5.49462891 49.24121094 8.30957031 C49.84666748 9.91783691 49.84666748 9.91783691 50.46435547 11.55859375 C50.88442871 12.74743164 51.30450195 13.93626953 51.73730469 15.16113281 C52.20868556 16.45353135 52.68121523 17.74551136 53.15478516 19.03710938 C54.69642224 23.27467319 56.18773399 27.52917546 57.67480469 31.78613281 C58.21072237 33.31238421 58.7467748 34.8385883 59.28295898 36.36474609 C62.1641649 44.58049791 65.00260851 52.80822122 67.72143555 61.0793457 C69.49886985 66.48261456 71.35539572 71.85589788 73.23730469 77.22363281 C73.52855225 78.05652832 73.8197998 78.88942383 74.11987305 79.74755859 C75.54673756 83.816013 76.99356027 87.87557598 78.47949219 91.92285156 C78.75470703 92.68009521 79.02992188 93.43733887 79.31347656 94.2175293 C79.8258807 95.62460484 80.34484379 97.02931918 80.87207031 98.4309082 C82.55228325 103.06377945 83.25350648 107.29259504 83.73730469 112.16113281 C84.05903841 114.16303154 84.38778848 116.16389734 84.73730469 118.16113281 C85.39730469 118.16113281 86.05730469 118.16113281 86.73730469 118.16113281 C87.2361678 120.38422183 87.73187647 122.60790175 88.22167969 124.83300781 C88.6110011 126.59085296 89.01451196 128.34556391 89.42480469 130.09863281 C89.73730469 132.16113281 89.73730469 132.16113281 88.73730469 134.16113281 C83.25640119 134.26006609 77.77601824 134.33263146 72.29443359 134.38085938 C70.43008368 134.40096543 68.56579674 134.42825461 66.70166016 134.46289062 C64.02067521 134.51145402 61.34052446 134.53411119 58.65917969 134.55175781 C57.82674744 134.57240295 56.99431519 134.5930481 56.13665771 134.61431885 C50.33211878 134.61656571 50.33211878 134.61656571 47.2565918 132.26171875 C45.81558281 130.26936115 44.61058649 128.3779503 43.54980469 126.16113281 C43.22625 125.50113281 42.90269531 124.84113281 42.56933594 124.16113281 C41.74424121 122.17780652 41.20020025 120.25585215 40.73730469 118.16113281 C39.45855469 118.01675781 38.17980469 117.87238281 36.86230469 117.72363281 C34.48037574 117.45470535 32.89277777 117.23886936 30.73730469 116.16113281 C29.08805038 116.15676296 27.43836047 116.21975926 25.79199219 116.31738281 C24.79683594 116.37023437 23.80167969 116.42308594 22.77636719 116.47753906 C20.6903506 116.59857953 18.6044104 116.72094472 16.51855469 116.84472656 C10.7375544 117.14938082 5.45996264 116.9981202 -0.26269531 116.16113281 C-3.11892018 116.51179666 -3.11892018 116.51179666 -5.26269531 117.16113281 C-5.59269531 120.46113281 -5.92269531 123.76113281 -6.26269531 127.16113281 C-6.92269531 127.16113281 -7.58269531 127.16113281 -8.26269531 127.16113281 C-8.26269531 128.48113281 -8.26269531 129.80113281 -8.26269531 131.16113281 C-12.37962398 134.7634454 -16.07850313 134.4247358 -21.26269531 134.16113281 C-20.91974747 130.96028631 -20.3182835 130.20699306 -17.76269531 128.09863281 C-16.93769531 127.45925781 -16.11269531 126.81988281 -15.26269531 126.16113281 C-14.10328493 122.68290166 -14.55448647 120.70217703 -15.26269531 117.16113281 C-15.92269531 117.16113281 -16.58269531 117.16113281 -17.26269531 117.16113281 C-17.26269531 116.50113281 -17.26269531 115.84113281 -17.26269531 115.16113281 C-22.21269531 115.16113281 -27.16269531 115.16113281 -32.26269531 115.16113281 C-32.28332031 116.56363281 -32.30394531 117.96613281 -32.32519531 119.41113281 C-32.33679688 120.20003906 -32.34839844 120.98894531 -32.36035156 121.80175781 C-32.26654837 124.06804283 -31.89510594 125.99002231 -31.26269531 128.16113281 C-30.14894531 128.31582031 -30.14894531 128.31582031 -29.01269531 128.47363281 C-26.09255513 129.20366786 -24.53081977 130.22902679 -22.26269531 132.16113281 C-22.92269531 132.16113281 -23.58269531 132.16113281 -24.26269531 132.16113281 C-24.26269531 132.82113281 -24.26269531 133.48113281 -24.26269531 134.16113281 C-31.52269531 134.16113281 -38.78269531 134.16113281 -46.26269531 134.16113281 C-46.59269531 132.84113281 -46.92269531 131.52113281 -47.26269531 130.16113281 C-48.58269531 129.83113281 -49.90269531 129.50113281 -51.26269531 129.16113281 C-50.74707031 128.43925781 -50.23144531 127.71738281 -49.70019531 126.97363281 C-47.96817401 124.30755215 -47.96817401 124.30755215 -48.76269531 121.72363281 C-49.46974541 118.10000106 -48.06538039 116.28116468 -46.26269531 113.16113281 C-45.76769531 112.17113281 -45.76769531 112.17113281 -45.26269531 111.16113281 C-44.60269531 111.16113281 -43.94269531 111.16113281 -43.26269531 111.16113281 C-43.28332031 109.88238281 -43.30394531 108.60363281 -43.32519531 107.28613281 C-43.38769531 103.41113281 -43.38769531 103.41113281 -42.26269531 101.16113281 C-42.29234375 100.28070313 -42.32199219 99.40027344 -42.35253906 98.49316406 C-42.24741805 94.59454578 -41.18777712 91.44787258 -39.82519531 87.84863281 C-39.55932617 87.12063477 -39.29345703 86.39263672 -39.01953125 85.64257812 C-38.42804772 84.02353431 -37.83262607 82.40592538 -37.23388672 80.78955078 C-35.46656961 76.00651005 -33.74175379 71.20810743 -32.01269531 66.41113281 C-31.63459717 65.36513916 -31.25649902 64.31914551 -30.86694336 63.24145508 C-27.87932256 54.94927038 -24.99643995 46.62350321 -22.13769531 38.28613281 C-20.51643402 33.57650266 -18.89097092 28.86834213 -17.26269531 24.16113281 C-16.91400391 23.15002441 -16.5653125 22.13891602 -16.20605469 21.09716797 C-15.27935121 18.42626964 -14.33691725 15.76159652 -13.38769531 13.09863281 C-13.12585449 12.33760254 -12.86401367 11.57657227 -12.59423828 10.79248047 C-10.18480797 4.13293256 -7.28032489 0.06398668 0 0 Z " fill="#231962" transform="translate(231.2626953125,180.8388671875)"/>
<path d="M0 0 C1.59303016 -0.00435598 3.18605823 -0.00954206 4.77908325 -0.01548767 C9.07684654 -0.02879563 13.37452144 -0.0294654 17.67230129 -0.02692437 C21.27517239 -0.02584877 24.87802604 -0.03075316 28.48089337 -0.03552979 C36.99020542 -0.04659726 45.49947331 -0.04707838 54.00878906 -0.04101562 C62.75144405 -0.03498179 71.49393785 -0.0472782 80.23656535 -0.06858569 C87.77412455 -0.08627243 95.31163278 -0.09219184 102.84921193 -0.08894795 C107.33708793 -0.08714572 111.82484902 -0.089664 116.31270599 -0.10366249 C120.53833654 -0.1163515 124.76371828 -0.11419357 128.98934555 -0.1012516 C130.52788507 -0.09890991 132.06644271 -0.1015325 133.6049614 -0.10987473 C158.11266209 -0.23303375 179.11828785 7.00764697 197.18457031 23.9621582 C213.37624662 40.94367238 219.97040835 62.47991433 220.15576172 85.53710938 C220.16726761 86.52457657 220.1787735 87.51204376 220.19062805 88.5294342 C220.22723559 91.79213435 220.25702155 95.05485187 220.28613281 98.31762695 C220.30934089 100.64162878 220.33273135 102.9656288 220.35629272 105.28962708 C220.40476322 110.18785223 220.4496129 115.0860952 220.4921875 119.984375 C220.53518665 124.88907037 220.58354283 129.79365739 220.63769531 134.69824219 C220.91888017 160.23643023 221.06904288 185.77138207 220.69575119 211.30950356 C220.66281951 213.61399949 220.63408562 215.9185601 220.61000443 218.22316551 C220.29152753 246.71797987 215.92848898 271.24345016 194.93457031 292.2746582 C194.32226562 292.89856445 193.70996094 293.5224707 193.07910156 294.1652832 C176.07680809 310.26127105 153.53759485 314.59110712 130.93920898 314.54931641 C129.36573548 314.55367375 127.79226409 314.55886027 126.21879578 314.56480408 C121.97894074 314.57809622 117.73917537 314.57878369 113.49930358 314.57624078 C109.94360346 314.57516427 106.38792098 314.58007176 102.83222467 314.5848462 C94.43460421 314.59590781 86.0370285 314.59639786 77.6394043 314.59033203 C69.01317526 314.58429629 60.3871095 314.59660081 51.76090831 314.6179021 C44.32099255 314.63558978 36.88112842 314.64150817 29.44119245 314.63826436 C25.01257556 314.63646256 20.58407513 314.63897613 16.15547752 314.6529789 C11.98646613 314.66566982 7.81770689 314.66350825 3.64869881 314.65056801 C2.13112167 314.64822687 0.61352615 314.65084684 -0.90402985 314.65919113 C-24.85491583 314.78124324 -46.9053754 308.09234372 -64.31542969 291.0793457 C-82.81081258 272.2161569 -88.23104876 250.06437267 -88.19482422 224.25512695 C-88.19618076 222.6314795 -88.19796211 221.00783236 -88.20013428 219.38418579 C-88.20467851 214.99169276 -88.20293145 210.59922331 -88.19975519 206.20672989 C-88.19721602 201.60070992 -88.19957346 196.99469192 -88.20114136 192.38867188 C-88.20295851 184.65502562 -88.20056866 176.92138894 -88.19580078 169.18774414 C-88.19035904 160.25818331 -88.19212202 151.32864532 -88.19762719 142.39908504 C-88.20217125 134.71987939 -88.20280253 127.0406806 -88.20018852 119.36147404 C-88.19863287 114.7804788 -88.19841244 110.19949429 -88.20172501 105.61849976 C-88.20462251 101.31092642 -88.20259355 97.00338241 -88.19683075 92.69581223 C-88.19551322 91.1188601 -88.19588009 89.5419055 -88.19809341 87.96495438 C-88.21678047 73.29347657 -88.21678047 73.29347657 -87.06542969 66.2746582 C-86.73542969 66.2746582 -86.40542969 66.2746582 -86.06542969 66.2746582 C-86.0676503 67.53568359 -86.06987091 68.79670898 -86.07215881 70.09594727 C-86.2745929 141.25187043 -86.2745929 141.25187043 -85.85690308 212.40576172 C-85.82956557 214.99717181 -85.80868163 217.58865917 -85.79470825 220.18017578 C-85.65483324 243.68849017 -82.42877613 263.15111114 -66.06542969 281.2746582 C-65.21851563 282.22598633 -65.21851563 282.22598633 -64.35449219 283.1965332 C-51.99240641 296.31311248 -33.69030267 304.70703835 -15.67915916 305.40608597 C-14.49310396 305.40906063 -13.30704876 305.41203529 -12.08505249 305.4151001 C-11.41854128 305.41807122 -10.75203008 305.42104234 -10.06532156 305.4241035 C-7.85098908 305.4327157 -5.63671113 305.43429235 -3.42236328 305.43579102 C-1.82667935 305.44042455 -0.23099651 305.44544993 1.36468506 305.45083618 C5.68731921 305.46391186 10.00993785 305.47039584 14.33258867 305.47484684 C17.03851432 305.47778579 19.74443581 305.48189216 22.45035934 305.48635101 C30.93193498 305.50001411 39.41350101 305.5096862 47.89508688 305.5135529 C57.65707517 305.51802886 67.41892311 305.53556027 77.18086874 305.5645535 C84.74548455 305.58623389 92.31006106 305.59626059 99.87470758 305.59759402 C104.38382844 305.59863764 108.89281715 305.60445016 113.40190506 305.62241364 C117.64880213 305.63900438 121.89546928 305.64099701 126.14238739 305.63227463 C127.69144435 305.63151006 129.24051424 305.63576927 130.78953934 305.64573288 C153.52171309 305.78324488 173.06420389 298.94081891 189.90722656 283.4074707 C193.4314859 279.69986839 196.178753 275.56763995 198.93457031 271.2746582 C199.38574219 270.64043945 199.83691406 270.0062207 200.30175781 269.3527832 C209.77145511 255.58937222 211.23965659 239.41940997 211.19335938 223.26269531 C211.1960742 221.66320639 211.19963789 220.06371873 211.20397949 218.4642334 C211.21305242 214.14354247 211.20957899 209.82294769 211.20322132 205.5022552 C211.19812868 200.9578456 211.20286237 196.41344377 211.20599365 191.86903381 C211.20962642 184.23217303 211.20485502 176.59535099 211.1953125 168.95849609 C211.1844566 160.16992187 211.18793544 151.38144067 211.19896531 142.59286875 C211.20809062 135.01453678 211.2092972 127.43623256 211.20408797 119.85789686 C211.2009934 115.34649706 211.20048831 110.83514071 211.20716095 106.32374382 C211.21300956 102.07271687 211.2088027 97.82180761 211.19737244 93.57079315 C211.1947643 92.02503465 211.19542352 90.47926596 211.19989777 88.93351173 C211.22095154 80.90955136 210.93926025 73.01986263 210.0223999 65.04298401 C209.94211367 64.34096892 209.86182744 63.63895384 209.77910829 62.91566557 C209.09177069 57.47360079 207.73886348 52.79519418 205.30957031 47.8996582 C204.95910645 47.15562744 204.60864258 46.41159668 204.24755859 45.64501953 C199.95896349 36.82957404 194.79473104 29.21344631 186.93457031 23.2746582 C185.26790365 21.60799154 183.60123698 19.94132487 181.93457031 18.2746582 C165.27993181 3.76900531 144.26441061 2.12940041 123.15429688 2.11352539 C121.69919716 2.10888539 120.24409864 2.10385919 118.78900146 2.09848022 C114.86728357 2.0854708 110.94558269 2.0789343 107.02384663 2.07446957 C104.56512798 2.07152113 102.10641381 2.06741323 99.64769745 2.06296539 C91.92965986 2.04932273 84.21163272 2.03963945 76.49358392 2.0357635 C67.63043772 2.03128587 58.76744598 2.01373801 49.9043467 1.98476291 C43.02071713 1.96305151 36.13713073 1.95305426 29.25346732 1.95172238 C25.15681468 1.95068142 21.06030784 1.94492597 16.96369171 1.92690277 C13.10577627 1.91025647 9.24811373 1.9083455 5.39017487 1.91704178 C3.9870841 1.9178033 2.58397876 1.9135888 1.18092346 1.90358353 C-7.56326312 1.84496307 -15.46391743 2.71768822 -23.93136978 4.72859573 C-26.8307038 5.23376077 -28.35434445 5.28732791 -31.06542969 4.2746582 C-21.68604252 -0.85042193 -10.38012317 -0.01890335 0 0 Z " fill="#010101" transform="translate(187.0654296875,95.725341796875)"/>
<path d="M0 0 C0.66 0.99 1.32 1.98 2 3 C1.67 3.33 1.34 3.66 1 4 C0.7746669 6.0279979 0.55232815 8.05674874 0.37890625 10.08984375 C0 12 0 12 -2 14 C-4.13039916 18.26079831 -5.21241044 20.45346084 -4 25 C-5.4375 27.75 -5.4375 27.75 -7 30 C-6.01 30.33 -5.02 30.66 -4 31 C-3.3125 33.0625 -3.3125 33.0625 -3 35 C-2.16597656 34.91621094 -1.33195313 34.83242188 -0.47265625 34.74609375 C6.23795059 34.1388338 12.33716455 33.98363527 19 35 C19 34.01 19 33.02 19 32 C17.88625 31.5875 16.7725 31.175 15.625 30.75 C13.3312078 29.74907249 12.16821169 29.20477945 10.5625 27.25 C9.61606163 23.46424654 9.22496616 19.55006768 11 16 C15.95 16 20.9 16 26 16 C26 16.66 26 17.32 26 18 C26.66 18 27.32 18 28 18 C28.66 20.31 29.32 22.62 30 25 C29.236875 25.721875 28.47375 26.44375 27.6875 27.1875 C25.28866409 29.69790967 23.64589779 31.96808302 22 35 C23.41750563 34.88490339 24.83401169 34.75746342 26.25 34.625 C27.43335938 34.52058594 27.43335938 34.52058594 28.640625 34.4140625 C31.085877 33.98492887 32.84836903 33.21399362 35 32 C35 30.68 35 29.36 35 28 C35.66 28 36.32 28 37 28 C37.33 24.7 37.66 21.4 38 18 C37.34 17.67 36.68 17.34 36 17 C36.94875 17.020625 37.8975 17.04125 38.875 17.0625 C41.90666283 17.22551826 41.90666283 17.22551826 44 16 C45.48511965 16.10306023 46.96611863 16.26943064 48.44140625 16.46875 C54.0110468 17.09371956 59.35752676 16.87385423 64.9375 16.5 C66.77961393 16.38016698 68.6220632 16.26535325 70.46484375 16.15625 C71.66548462 16.07600586 71.66548462 16.07600586 72.89038086 15.99414062 C75 16 75 16 78 17 C78.97453125 17.04253906 79.9490625 17.08507812 80.953125 17.12890625 C84 18 84 18 86.046875 21.08984375 C86.6373231 22.3620873 87.20445948 23.64536296 87.75 24.9375 C89.8124608 29.82540124 89.8124608 29.82540124 93 34 C95.9366021 34.2459409 98.78562112 34.37375252 101.7265625 34.4140625 C102.58937836 34.43342865 103.45219421 34.4527948 104.34115601 34.4727478 C107.10233616 34.53262204 109.86355784 34.57895998 112.625 34.625 C114.49481005 34.66317259 116.36460238 34.70222389 118.234375 34.7421875 C122.82277309 34.83832992 127.41125351 34.92233166 132 35 C132 35.33 132 35.66 132 36 C126.25263756 36.14853034 120.50639629 36.25730179 114.75756836 36.32958984 C112.80294329 36.35972831 110.84845308 36.4006477 108.89428711 36.45263672 C106.08153001 36.52558389 103.27056294 36.55948459 100.45703125 36.5859375 C99.58601273 36.61690521 98.7149942 36.64787292 97.81758118 36.67977905 C93.4415935 36.68219612 91.58731525 36.47516584 88.09643555 33.65087891 C86 30 86 30 83 19 C69.14 19 55.28 19 41 19 C40.01 22.3 39.02 25.6 38 29 C36.50896357 31.86278994 35.26905418 33.73094582 33 36 C29.93821227 36.20014153 26.96880708 36.27971072 23.90625 36.265625 C22.5525531 36.26849518 22.5525531 36.26849518 21.17150879 36.27142334 C19.26163454 36.27278559 17.35175104 36.26908638 15.44189453 36.26074219 C12.5118335 36.25004321 9.58238562 36.26063611 6.65234375 36.2734375 C4.79947781 36.27211591 2.94661225 36.26955353 1.09375 36.265625 C-0.22659241 36.27169769 -0.22659241 36.27169769 -1.5736084 36.27789307 C-7.7700834 36.2299166 -7.7700834 36.2299166 -10 34 C-9.81343603 26.09130996 -7.20426734 19.28023782 -4.4375 11.9375 C-4.01275391 10.78572266 -3.58800781 9.63394531 -3.15039062 8.44726562 C-2.10926067 5.62802609 -1.05898188 2.81257165 0 0 Z " fill="#32298B" transform="translate(188,280)"/>
<path d="M0 0 C0.66 0 1.32 0 2 0 C2.20157715 0.66531738 2.4031543 1.33063477 2.61083984 2.01611328 C3.53137627 5.05266737 4.45317681 8.08883631 5.375 11.125 C5.69210938 12.17171875 6.00921875 13.2184375 6.3359375 14.296875 C6.6453125 15.31523437 6.9546875 16.33359375 7.2734375 17.3828125 C7.57217773 18.36797852 7.87091797 19.35314453 8.17871094 20.36816406 C8.81402532 22.4040407 9.50838791 24.42154326 10.2265625 26.4296875 C11 29 11 29 11 34 C4.4 34 -2.2 34 -9 34 C-8.32643485 28.61147883 -7.72982767 24.53913545 -6.15234375 19.53125 C-5.79462891 18.38398438 -5.43691406 17.23671875 -5.06835938 16.0546875 C-4.50858398 14.29511719 -4.50858398 14.29511719 -3.9375 12.5 C-3.37192383 10.69402344 -3.37192383 10.69402344 -2.79492188 8.8515625 C-1.86934066 5.8990756 -0.93755706 2.94870139 0 0 Z " fill="#3F4E69" transform="translate(249,227)"/>
<path d="M0 0 C1.42088395 0.12574194 2.83702455 0.30449396 4.25 0.5 C11.14442498 1.22956878 17.92653645 0.76189569 24.82519531 0.31835938 C25.70788086 0.26486328 26.59056641 0.21136719 27.5 0.15625 C28.69109375 0.07600586 28.69109375 0.07600586 29.90625 -0.00585938 C32 0 32 0 35 1 C35.97453125 1.04253906 36.9490625 1.08507812 37.953125 1.12890625 C41 2 41 2 43.046875 5.08984375 C43.6373231 6.3620873 44.20445948 7.64536296 44.75 8.9375 C46.8124608 13.82540124 46.8124608 13.82540124 50 18 C52.9366021 18.2459409 55.78562112 18.37375252 58.7265625 18.4140625 C60.02078629 18.44311172 60.02078629 18.44311172 61.34115601 18.4727478 C64.10233616 18.53262204 66.86355784 18.57895998 69.625 18.625 C71.49481005 18.66317259 73.36460238 18.70222389 75.234375 18.7421875 C79.82277309 18.83832992 84.41125351 18.92233166 89 19 C89 19.33 89 19.66 89 20 C83.25263756 20.14853034 77.50639629 20.25730179 71.75756836 20.32958984 C69.80294329 20.35972831 67.84845308 20.4006477 65.89428711 20.45263672 C63.08153001 20.52558389 60.27056294 20.55948459 57.45703125 20.5859375 C56.58601273 20.61690521 55.7149942 20.64787292 54.81758118 20.67977905 C50.4415935 20.68219612 48.58731525 20.47516584 45.09643555 17.65087891 C43 14 43 14 40 3 C26.14 3 12.28 3 -2 3 C-2.99 6.3 -3.98 9.6 -5 13 C-6.79234865 16.7405537 -8.090805 18.51720189 -12 20 C-11.34 18.68 -10.68 17.36 -10 16 C-9.34 16 -8.68 16 -8 16 C-8 14.68 -8 13.36 -8 12 C-7.34 12 -6.68 12 -6 12 C-5.67 8.7 -5.34 5.4 -5 2 C-5.66 1.67 -6.32 1.34 -7 1 C-5.5459375 1.0309375 -5.5459375 1.0309375 -4.0625 1.0625 C-1.12534105 1.35618499 -1.12534105 1.35618499 0 0 Z " fill="#312D7F" transform="translate(231,296)"/>
<path d="M0 0 C1.8125 0.8125 1.8125 0.8125 4 2 C5.3303125 2.433125 5.3303125 2.433125 6.6875 2.875 C7.450625 3.24625 8.21375 3.6175 9 4 C9.33 5.32 9.66 6.64 10 8 C14.455 8.99 14.455 8.99 19 10 C18.67 12.31 18.34 14.62 18 17 C16.35 17.66 14.7 18.32 13 19 C13 18.34 13 17.68 13 17 C12.21625 16.896875 11.4325 16.79375 10.625 16.6875 C8 16 8 16 6 13 C4.34385343 12.61781233 2.67542976 12.28604898 1 12 C0.01 11.34 -0.98 10.68 -2 10 C-2.29296875 7.8359375 -2.29296875 7.8359375 -2.1875 5.375 C-2.16042969 4.55773437 -2.13335937 3.74046875 -2.10546875 2.8984375 C-2.05326172 1.95871094 -2.05326172 1.95871094 -2 1 C-1.34 0.67 -0.68 0.34 0 0 Z " fill="#2C2774" transform="translate(211,274)"/>
<path d="M0 0 C0.33 0 0.66 0 1 0 C1.13061592 9.85735428 1.26101974 19.71471134 1.39115143 29.57207203 C1.45158088 34.14904225 1.51208388 38.72601148 1.57275391 43.30297852 C1.63128114 47.71849533 1.68961657 52.13401463 1.74781799 56.54953575 C1.77007694 58.23566465 1.79240545 59.92179264 1.81480408 61.60791969 C1.84612026 63.96623119 1.87719099 66.32454581 1.90820312 68.68286133 C1.91755386 69.38273163 1.9269046 70.08260193 1.9365387 70.80368042 C1.99218695 75.060222 2.00148043 79.30745543 1.90820312 83.56323242 C1.88818237 84.48396042 1.86816162 85.40468842 1.84753418 86.35331726 C1.8256604 87.34402725 1.80378662 88.33473724 1.78125 89.35546875 C1.74795593 90.88062859 1.74795593 90.88062859 1.71398926 92.43659973 C1.6429651 95.68690659 1.57148782 98.93720331 1.5 102.1875 C1.45179309 104.38997331 1.40361564 106.59244726 1.35546875 108.79492188 C1.23732108 114.19662212 1.11880128 119.5983141 1 125 C0.67 125 0.34 125 0 125 C-0.58984017 93.10500897 -1.10164013 61.21359372 -1.125 29.3125 C-1.12749756 28.10787109 -1.12999512 26.90324219 -1.13256836 25.66210938 C-1.13839455 22.27080311 -1.13701962 18.87958822 -1.1328125 15.48828125 C-1.13479645 14.49222366 -1.1367804 13.49616608 -1.13882446 12.46992493 C-1.13571259 11.5534166 -1.13260071 10.63690826 -1.12939453 9.69262695 C-1.12859894 8.90193314 -1.12780334 8.11123932 -1.12698364 7.29658508 C-0.98837724 4.78979456 -0.54565841 2.4478123 0 0 Z " fill="#313B50" transform="translate(101,213)"/>
<path d="M0 0 C1.25035034 -0.00419449 2.50070068 -0.00838898 3.78894043 -0.01271057 C5.17736894 -0.00722674 6.56579667 -0.00154375 7.95422363 0.00431824 C9.41463303 0.00324538 10.875042 0.00130666 12.33544922 -0.00143433 C16.30699976 -0.00628875 20.27843821 0.00138319 24.2499752 0.01151872 C28.41152188 0.02030321 32.57306508 0.0185416 36.73461914 0.01815796 C43.73231885 0.01909531 50.72997527 0.02778387 57.72766113 0.04142761 C65.79762095 0.05710477 73.8675332 0.06242741 81.93750715 0.06169206 C90.54444434 0.06101388 99.15136338 0.06797593 107.75829506 0.07713866 C110.22818192 0.07926146 112.69806581 0.07997871 115.16795349 0.08037758 C119.06837168 0.08138996 122.96875068 0.08755881 126.86915588 0.09754372 C128.29326131 0.10043973 129.71737124 0.10170004 131.14147949 0.10111618 C139.15920469 0.09907485 147.04879116 0.34151017 155.01867676 1.24723816 C155.01867676 1.57723816 155.01867676 1.90723816 155.01867676 2.24723816 C150.06867676 2.74223816 150.06867676 2.74223816 145.01867676 3.24723816 C145.01867676 4.23723816 145.01867676 5.22723816 145.01867676 6.24723816 C144.02867676 5.91723816 143.03867676 5.58723816 142.01867676 5.24723816 C142.01867676 4.58723816 142.01867676 3.92723816 142.01867676 3.24723816 C139.29828029 1.88703993 137.16821015 2.12442343 134.12155151 2.12698364 C132.86509323 2.12560898 131.60863495 2.12423431 130.31410217 2.12281799 C128.91403175 2.12635737 127.51396156 2.12999219 126.1138916 2.13371277 C124.64563499 2.13399472 123.17737823 2.13383676 121.7091217 2.13327026 C117.71555357 2.13298258 113.72201529 2.13887458 109.72845411 2.14584422 C105.55775064 2.15208263 101.38704653 2.15268195 97.21633911 2.15386963 C89.31509679 2.1569815 81.41386825 2.16519296 73.51263201 2.17521912 C64.51880459 2.18638471 55.52497653 2.19189183 46.5311439 2.19691455 C28.02698036 2.20737568 9.52282967 2.22497235 -8.98132324 2.24723816 C-5.48719335 -0.08218177 -4.12773396 -0.00206469 0 0 Z " fill="#344050" transform="translate(180.9813232421875,96.75276184082031)"/>
<path d="M0 0 C4.29 0 8.58 0 13 0 C14.99795425 3.99590851 15.3757916 5.67839666 15 10 C13 12 13 12 9.8125 12.375 C5.13424503 11.91484377 2.89596028 10.54430059 -1 8 C-1.125 2.25 -1.125 2.25 0 0 Z " fill="#3F5067" transform="translate(199,296)"/>
<path d="M0 0 C0.80308594 -0.02578125 1.60617187 -0.0515625 2.43359375 -0.078125 C3.48740234 0.08429688 3.48740234 0.08429688 4.5625 0.25 C7.12937367 4.1003105 6.39538724 5.83569763 5.5625 10.25 C-0.66430412 11.56720856 -0.66430412 11.56720856 -3.875 10.25 C-6.19154581 7.28482136 -5.7749475 4.894433 -5.4375 1.25 C-3.84882134 -0.33867866 -2.19060484 0.04205961 0 0 Z " fill="#3F4E67" transform="translate(254.4375,196.75)"/>
<path d="M0 0 C1.32 0 2.64 0 4 0 C4.33 1.98 4.66 3.96 5 6 C6.299375 5.690625 6.299375 5.690625 7.625 5.375 C11.36428602 4.95952378 13.54942141 5.60333724 17 7 C16.67 8.32 16.34 9.64 16 11 C13.91846065 11.13536022 11.83438794 11.23215465 9.75 11.3125 C8.58984375 11.37050781 7.4296875 11.42851562 6.234375 11.48828125 C3 11 3 11 0.59765625 8.65234375 C-1.1463732 5.75699901 -1.46025512 4.31383688 -1 1 C-0.67 0.67 -0.34 0.34 0 0 Z " fill="#272365" transform="translate(282,258)"/>
<path d="M0 0 C3.3 0.33 6.6 0.66 10 1 C10 2.65 10 4.3 10 6 C4.70769231 9.07692308 4.70769231 9.07692308 1.125 8.6875 C0.42375 8.460625 -0.2775 8.23375 -1 8 C-1.625 5.6875 -1.625 5.6875 -2 3 C-1.34 2.01 -0.68 1.02 0 0 Z " fill="#414B73" transform="translate(293,291)"/>
<path d="M0 0 C1.175625 0.0825 2.35125 0.165 3.5625 0.25 C5.71165785 3.47373677 5.94536803 4.51703674 5.5625 8.25 C4.9025 8.91 4.2425 9.57 3.5625 10.25 C0.23066423 9.91681642 -2.08550416 8.60199584 -4.4375 6.25 C-4.75 3.625 -4.75 3.625 -4.4375 1.25 C-3.4375 0.25 -3.4375 0.25 0 0 Z " fill="#3E4B6A" transform="translate(224.4375,239.75)"/>
<path d="M0 0 C0.66 0.99 1.32 1.98 2 3 C1.67 3.33 1.34 3.66 1 4 C0.7746669 6.0279979 0.55232815 8.05674874 0.37890625 10.08984375 C0 12 0 12 -2 14 C-4.13039916 18.26079831 -5.21241044 20.45346084 -4 25 C-5.3125 27.75 -5.3125 27.75 -7 30 C-7.66 30 -8.32 30 -9 30 C-9.33 31.32 -9.66 32.64 -10 34 C-9.53684716 26.059034 -7.23035562 19.34947364 -4.4375 11.9375 C-4.01275391 10.78572266 -3.58800781 9.63394531 -3.15039062 8.44726562 C-2.10926067 5.62802609 -1.05898188 2.81257165 0 0 Z " fill="#2D287D" transform="translate(188,280)"/>
<path d="M0 0 C2.5625 1.1875 2.5625 1.1875 4 3 C4.625 5.375 4.625 5.375 4 8 C0.73168483 11.66689019 0.73168483 11.66689019 -2 13 C-5.45923624 12.88469213 -7.9090909 12.54545455 -11 11 C-11.86221231 7.48482672 -12.36328987 5.01202179 -11.125 1.5625 C-7.68056782 -0.97017072 -4.11909299 -0.60968524 0 0 Z M-8 2 C-10.33391203 4.78114056 -10.33391203 4.78114056 -9.625 7.6875 C-9.41875 8.450625 -9.2125 9.21375 -9 10 C-5.44706507 11.14947895 -4.20023331 11.0868937 -0.6875 9.5625 C0.199375 9.046875 1.08625 8.53125 2 8 C2 6.35 2 4.7 2 3 C-1.3 2.67 -4.6 2.34 -8 2 Z " fill="#302B79" transform="translate(301,289)"/>
<path d="M0 0 C2.97 0 5.94 0 9 0 C9.25 2.8125 9.25 2.8125 9 6 C7.25 7.9375 7.25 7.9375 5 9 C2.83031791 8.75203633 1.55766393 8.55766393 0 7 C-0.04092937 4.66702567 -0.04241723 2.33294775 0 0 Z " fill="#414874" transform="translate(223,268)"/>
<path d="M0 0 C0.66 0 1.32 0 2 0 C2 0.66 2 1.32 2 2 C2.66 2 3.32 2 4 2 C4.66 4.31 5.32 6.62 6 9 C4.3473278 11.50961334 3.6053082 12.62011344 1 14 C-3.40303846 14.14925554 -7.6482155 13.64352889 -12 13 C-12.66 11.35 -13.32 9.7 -14 8 C-8.125 9.875 -8.125 9.875 -7 11 C-3.5 11.16666667 -3.5 11.16666667 0 11 C0.33 10.67 0.66 10.34 1 10 C0.91036938 8.30858344 0.75422324 6.62040398 0.5625 4.9375 C0.46066406 4.01839844 0.35882813 3.09929687 0.25390625 2.15234375 C0.17011719 1.44207031 0.08632812 0.73179687 0 0 Z " fill="#332F7F" transform="translate(212,296)"/>
<path d="M0 0 C3.39929539 1.20620159 5.18114147 2.9079405 7 6 C7 7.32 7 8.64 7 10 C3.625 10.125 3.625 10.125 0 10 C-2 8 -2 8 -2.125 4.375 C-2.08375 3.26125 -2.0425 2.1475 -2 1 C-1.34 0.67 -0.68 0.34 0 0 Z " fill="#404973" transform="translate(211,274)"/>
<path d="M0 0 C0.66 0 1.32 0 2 0 C2.99 3.3 3.98 6.6 5 10 C5.66 10 6.32 10 7 10 C9.45029331 15.71735105 10.33266291 19.79029227 10 26 C9.01 26.33 8.02 26.66 7 27 C7.04125 26.113125 7.0825 25.22625 7.125 24.3125 C6.99905655 20.97499857 6.24867294 19.04364028 5 16 C4.875 13.1875 4.875 13.1875 5 11 C4.34 11 3.68 11 3 11 C2.01 7.37 1.02 3.74 0 0 Z " fill="#373A74" transform="translate(313,288)"/>
<path d="M0 0 C1.32 0 2.64 0 4 0 C4.12375 1.11375 4.2475 2.2275 4.375 3.375 C4.6465813 7.03103677 4.6465813 7.03103677 7 9 C2.75 13.25 2.75 13.25 -1 14 C-1.33 12.02 -1.66 10.04 -2 8 C-1.34 8 -0.68 8 0 8 C0 5.36 0 2.72 0 0 Z " fill="#353074" transform="translate(257,270)"/>
<path d="M0 0 C2.625 0.375 2.625 0.375 5 1 C5.625 3.3125 5.625 3.3125 6 6 C5.01 7.485 5.01 7.485 4 9 C1.5 9.3125 1.5 9.3125 -1 9 C-1.66 8.34 -2.32 7.68 -3 7 C-2.67028521 3.70285207 -2.3773161 2.3773161 0 0 Z " fill="#3F4B68" transform="translate(217,219)"/>
<path d="M0 0 C1.67542976 0.28604898 3.34385343 0.61781233 5 1 C5.33 3.31 5.66 5.62 6 8 C4.35 8.33 2.7 8.66 1 9 C-0.5625 7.25 -0.5625 7.25 -2 5 C-1.75203633 2.83031791 -1.55766393 1.55766393 0 0 Z " fill="#3E4A6A" transform="translate(275,232)"/>
<path d="M0 0 C4.29 0 8.58 0 13 0 C14.99173794 3.98347589 15.46902162 5.6850011 15 10 C14.01 10.66 13.02 11.32 12 12 C12.33 8.7 12.66 5.4 13 2 C7.32324068 1.61564954 7.32324068 1.61564954 2 3 C1.34444881 5.52733235 1.34444881 5.52733235 1 8 C0.34 8 -0.32 8 -1 8 C-1.125 2.25 -1.125 2.25 0 0 Z " fill="#424976" transform="translate(199,296)"/>
<path d="M0 0 C0 3 0 3 -2.08203125 5.26953125 C-3.89426371 6.95731856 -5.70676136 8.64482118 -7.51953125 10.33203125 C-10.07673721 13.08253782 -11.42724714 15.61577287 -13 19 C-15.1875 21.375 -15.1875 21.375 -17 23 C-17.66 22.67 -18.32 22.34 -19 22 C-13.4115535 13.72141306 -7.21345774 6.85543686 0 0 Z " fill="#2B3442" transform="translate(129,113)"/>
<path d="M0 0 C1.32 0 2.64 0 4 0 C5.4783226 2.95664519 5.06032783 5.74229737 5 9 C3.35 8.67 1.7 8.34 0 8 C-0.38063221 5.6739143 -0.71269945 3.33944736 -1 1 C-0.67 0.67 -0.34 0.34 0 0 Z " fill="#3F4870" transform="translate(282,258)"/>
<path d="M0 0 C0.66 0 1.32 0 2 0 C1.49396008 2.16874252 1.00016187 3.99967627 0 6 C0.66 6 1.32 6 2 6 C1.71125 6.556875 1.4225 7.11375 1.125 7.6875 C-0.05168479 10.00643088 -0.05168479 10.00643088 -0.9375 12.5625 C-1.99704965 14.99323155 -3.01393095 16.28475855 -5 18 C-3.41463415 3.41463415 -3.41463415 3.41463415 0 0 Z " fill="#1D1B50" transform="translate(206,229)"/>
<path d="M0 0 C0 0.66 0 1.32 0 2 C0.66 2.33 1.32 2.66 2 3 C-2.29 3 -6.58 3 -11 3 C-11.33 5.64 -11.66 8.28 -12 11 C-12.66 11 -13.32 11 -14 11 C-14 10.34 -14 9.68 -14 9 C-14.99 8.67 -15.98 8.34 -17 8 C-13.39558321 2.47322759 -13.39558321 2.47322759 -9.51171875 1.15625 C-6.33270762 0.53056908 -3.24470673 0 0 0 Z " fill="#2E287F" transform="translate(210,293)"/>
<path d="M0 0 C0.33 1.32 0.66 2.64 1 4 C-0.75 5.125 -0.75 5.125 -3 6 C-5.25 5.125 -5.25 5.125 -7 4 C-7 2.68 -7 1.36 -7 0 C-4.3333581 -1.33332095 -2.83319697 -0.67102033 0 0 Z " fill="#3F4A6A" transform="translate(276,217)"/>
<path d="M0 0 C1.65 0.33 3.3 0.66 5 1 C6 4 6 4 5 7 C3.35 7 1.7 7 0 7 C-1.125 2.25 -1.125 2.25 0 0 Z " fill="#404872" transform="translate(222,283)"/>
<path d="M0 0 C2.125 0.375 2.125 0.375 4 1 C5.125 4.75 5.125 4.75 4 7 C2.35 7 0.7 7 -1 7 C-1.625 4.625 -1.625 4.625 -2 2 C-1.34 1.34 -0.68 0.68 0 0 Z " fill="#414C69" transform="translate(223,200)"/>
<path d="M0 0 C0.66 0.99 1.32 1.98 2 3 C1.12041464 5.78535363 0.14697825 8.32669272 -1 11 C-1.73231068 12.83207975 -2.46147485 14.66542032 -3.1875 16.5 C-3.7908025 18.00034778 -4.39465846 19.50047375 -5 21 C-6.05711427 17.80042565 -5.95184778 16.03354912 -4.78515625 12.890625 C-4.51123047 12.13652344 -4.23730469 11.38242187 -3.95507812 10.60546875 C-3.51325195 9.43951172 -3.51325195 9.43951172 -3.0625 8.25 C-2.77181641 7.45722656 -2.48113281 6.66445312 -2.18164062 5.84765625 C-1.46405186 3.89487371 -0.73329094 1.94694059 0 0 Z " fill="#22235B" transform="translate(200,245)"/>
<path d="M0 0 C0.66 0.66 1.32 1.32 2 2 C2.66 2 3.32 2 4 2 C4 4 4 4 2.125 6.125 C0 8 0 8 -2 8 C-2 6.35 -2 4.7 -2 3 C-3.32 3.33 -4.64 3.66 -6 4 C-6.33 3.01 -6.66 2.02 -7 1 C-4 0 -4 0 0 0 Z " fill="#100E32" transform="translate(249,192)"/>
<path d="M0 0 C1.32 0 2.64 0 4 0 C4 0.66 4 1.32 4 2 C4.99 2.33 5.98 2.66 7 3 C7 3.99 7 4.98 7 6 C4.36 6.33 1.72 6.66 -1 7 C-1 6.34 -1 5.68 -1 5 C-0.01 5 0.98 5 2 5 C2.33 4.34 2.66 3.68 3 3 C2.01 2.67 1.02 2.34 0 2 C0 1.34 0 0.68 0 0 Z " fill="#3E5065" transform="translate(294,291)"/>
<path d="M0 0 C1.65 0 3.3 0 5 0 C5.33 1.65 5.66 3.3 6 5 C4.125 5.625 4.125 5.625 2 6 C1.34 5.34 0.68 4.68 0 4 C0 2.68 0 1.36 0 0 Z " fill="#414967" transform="translate(237,194)"/>
<path d="M0 0 C2.97 0.495 2.97 0.495 6 1 C6 2.98 6 4.96 6 7 C5.01 7 4.02 7 3 7 C0 2.77777778 0 2.77777778 0 0 Z " fill="#3A4A5E" transform="translate(111,363)"/>
<path d="M0 0 C1.32 0 2.64 0 4 0 C4.33 1.98 4.66 3.96 5 6 C2.03 5.505 2.03 5.505 -1 5 C-0.67 3.35 -0.34 1.7 0 0 Z " fill="#404970" transform="translate(282,277)"/>
<path d="M0 0 C0.99 1.32 1.98 2.64 3 4 C7.64586892 3.51515724 7.64586892 3.51515724 12 2 C11.1875 3.9375 11.1875 3.9375 10 6 C5.74938644 7.41687119 3.28148375 6.19320039 -1 5 C-0.67 3.35 -0.34 1.7 0 0 Z " fill="#29256A" transform="translate(222,272)"/>
<path d="M0 0 C0.99 0 1.98 0 3 0 C3 1.98 3 3.96 3 6 C1.35 5.67 -0.3 5.34 -2 5 C-1.125 1.125 -1.125 1.125 0 0 Z " fill="#40486F" transform="translate(272,247)"/>
<path d="M0 0 C3.3 0.33 6.6 0.66 10 1 C9.67 1.66 9.34 2.32 9 3 C5.35346727 4.11421833 2.66708957 3.94296589 -1 3 C-0.67 2.01 -0.34 1.02 0 0 Z " fill="#261C6E" transform="translate(287,268)"/>
<path d="M0 0 C3.37996604 3.37996604 4.125 6.6387273 4.125 11.3125 C4.08375 12.529375 4.0425 13.74625 4 15 C3.34 15 2.68 15 2 15 C2.04125 14.113125 2.0825 13.22625 2.125 12.3125 C1.99944579 8.98531353 1.27344719 7.02443707 0 4 C0 2.68 0 1.36 0 0 Z " fill="#312E7F" transform="translate(318,300)"/>
<path d="M0 0 C1.98 0 3.96 0 6 0 C6.33 1.32 6.66 2.64 7 4 C6.01 4.495 6.01 4.495 5 5 C5 4.01 5 3.02 5 2 C3.68 2 2.36 2 1 2 C0.67 3.32 0.34 4.64 0 6 C-1.125 2.25 -1.125 2.25 0 0 Z " fill="#27246E" transform="translate(281,275)"/>
<path d="M0 0 C1.98 0 3.96 0 6 0 C5.67 1.32 5.34 2.64 5 4 C3.35 4 1.7 4 0 4 C0 2.68 0 1.36 0 0 Z " fill="#3D5164" transform="translate(224,270)"/>
<path d="M0 0 C0.33 0 0.66 0 1 0 C1.61528766 5.07612318 -0.38341651 7.82982006 -3 12 C-3.99 11.67 -4.98 11.34 -6 11 C-5.53980469 10.59136719 -5.07960937 10.18273437 -4.60546875 9.76171875 C-2.84085229 7.82536346 -2.16028378 6.27511002 -1.3125 3.8125 C-1.06113281 3.09707031 -0.80976563 2.38164062 -0.55078125 1.64453125 C-0.36902344 1.10183594 -0.18726563 0.55914062 0 0 Z " fill="#414778" transform="translate(227,304)"/>
<path d="M0 0 C0.99 0.33 1.98 0.66 3 1 C3.33 2.98 3.66 4.96 4 7 C2.68 6.67 1.36 6.34 0 6 C0 4.02 0 2.04 0 0 Z " fill="#3E5066" transform="translate(211,276)"/>
<path d="M0 0 C0.66 0 1.32 0 2 0 C1.51421457 3.12290635 1.0013988 5.99580359 0 9 C-0.66 9 -1.32 9 -2 9 C-1.125 2.25 -1.125 2.25 0 0 Z " fill="#252C42" transform="translate(104,148)"/>
<path d="M0 0 C1.65 0 3.3 0 5 0 C4.375 1.875 4.375 1.875 3 4 C-0.125 5.25 -0.125 5.25 -3 6 C-3 5.34 -3 4.68 -3 4 C-2.34 3.67 -1.68 3.34 -1 3 C-0.67 2.01 -0.34 1.02 0 0 Z " fill="#2A1F76" transform="translate(259,278)"/>
<path d="M0 0 C0 0.99 0 1.98 0 3 C-0.66 3 -1.32 3 -2 3 C-2 3.99 -2 4.98 -2 6 C-3.65 6 -5.3 6 -7 6 C-7 5.34 -7 4.68 -7 4 C-4.69 2.68 -2.38 1.36 0 0 Z " fill="#2A3444" transform="translate(142,105)"/>
<path d="M0 0 C2.97 0.495 2.97 0.495 6 1 C5.34 2.32 4.68 3.64 4 5 C3.67 4.34 3.34 3.68 3 3 C0.97536745 2.34786708 0.97536745 2.34786708 -1 2 C-0.67 1.34 -0.34 0.68 0 0 Z " fill="#2C2875" transform="translate(281,282)"/>
<path d="M0 0 C2.31 0.33 4.62 0.66 7 1 C7 1.33 7 1.66 7 2 C4.03 2.66 1.06 3.32 -2 4 C-1.34 2.68 -0.68 1.36 0 0 Z " fill="#171844" transform="translate(216,217)"/>
<path d="M0 0 C1.98 0.66 3.96 1.32 6 2 C5.01 2.495 5.01 2.495 4 3 C4 3.66 4 4.32 4 5 C2.68 5 1.36 5 0 5 C0 3.35 0 1.7 0 0 Z " fill="#364558" transform="translate(355,105)"/>
<path d="M0 0 C1.98 0.495 1.98 0.495 4 1 C4 1.99 4 2.98 4 4 C2.35 4 0.7 4 -1 4 C-0.67 2.68 -0.34 1.36 0 0 Z " fill="#434977" transform="translate(293,263)"/>
<path d="M0 0 C0.99 0.33 1.98 0.66 3 1 C3.33 3.97 3.66 6.94 4 10 C1.81024227 6.71536341 1.00193437 3.79303725 0 0 Z " fill="#212059" transform="translate(256,246)"/>
<path d="" fill="#000000" transform="translate(0,0)"/>
<path d="" fill="#000000" transform="translate(0,0)"/>
<path d="" fill="#FFFFFF" transform="translate(0,0)"/>
<path d="" fill="#000000" transform="translate(0,0)"/>
<path d="" fill="#000000" transform="translate(0,0)"/>
<path d="" fill="#000000" transform="translate(0,0)"/>
<path d="" fill="#000000" transform="translate(0,0)"/>
<path d="" fill="#FFFFFF" transform="translate(0,0)"/>
<path d="" fill="#FFFFFF" transform="translate(0,0)"/>
<path d="" fill="#FFFFFF" transform="translate(0,0)"/>
<path d="" fill="#FFFFFF" transform="translate(0,0)"/>
<path d="" fill="#FFFFFF" transform="translate(0,0)"/>
<path d="" fill="#000000" transform="translate(0,0)"/>
<path d="" fill="#000000" transform="translate(0,0)"/>
<path d="" fill="#000000" transform="translate(0,0)"/>
<path d="" fill="#FFFFFF" transform="translate(0,0)"/>
<path d="" fill="#000000" transform="translate(0,0)"/>
<path d="" fill="#FFFFFF" transform="translate(0,0)"/>
<path d="" fill="#FFFFFF" transform="translate(0,0)"/>
<path d="" fill="#000000" transform="translate(0,0)"/>
<path d="" fill="#FFFFFF" transform="translate(0,0)"/>
<path d="" fill="#000000" transform="translate(0,0)"/>
<path d="" fill="#000000" transform="translate(0,0)"/>
<path d="" fill="#FFFFFF" transform="translate(0,0)"/>
<path d="" fill="#FFFFFF" transform="translate(0,0)"/>
<path d="" fill="#FFFFFF" transform="translate(0,0)"/>
<path d="" fill="#000000" transform="translate(0,0)"/>
<path d="" fill="#FFFFFF" transform="translate(0,0)"/>
<path d="" fill="#FFFFFF" transform="translate(0,0)"/>
<path d="" fill="#000000" transform="translate(0,0)"/>
<path d="" fill="#FFFFFF" transform="translate(0,0)"/>
<path d="" fill="#FFFFFF" transform="translate(0,0)"/>
<path d="" fill="#000000" transform="translate(0,0)"/>
<path d="" fill="#000000" transform="translate(0,0)"/>
<path d="" fill="#FFFFFF" transform="translate(0,0)"/>
<path d="" fill="#FFFFFF" transform="translate(0,0)"/>
<path d="" fill="#000000" transform="translate(0,0)"/>
<path d="" fill="#000000" transform="translate(0,0)"/>
<path d="" fill="#FFFFFF" transform="translate(0,0)"/>
<path d="" fill="#000000" transform="translate(0,0)"/>
<path d="" fill="#000000" transform="translate(0,0)"/>
<path d="" fill="#FFFFFF" transform="translate(0,0)"/>
<path d="" fill="#000000" transform="translate(0,0)"/>
<path d="" fill="#FFFFFF" transform="translate(0,0)"/>
<path d="" fill="#000000" transform="translate(0,0)"/>
<path d="" fill="#000000" transform="translate(0,0)"/>
<path d="" fill="#000000" transform="translate(0,0)"/>
<path d="" fill="#000000" transform="translate(0,0)"/>
<path d="" fill="#FFFFFF" transform="translate(0,0)"/>
<path d="" fill="#000000" transform="translate(0,0)"/>
<path d="" fill="#000000" transform="translate(0,0)"/>
<path d="" fill="#FFFFFF" transform="translate(0,0)"/>
<path d="" fill="#000000" transform="translate(0,0)"/>
<path d="" fill="#FFFFFF" transform="translate(0,0)"/>
<path d="" fill="#000000" transform="translate(0,0)"/>
<path d="" fill="#FFFFFF" transform="translate(0,0)"/>
<path d="" fill="#FFFFFF" transform="translate(0,0)"/>
<path d="" fill="#FFFFFF" transform="translate(0,0)"/>
<path d="" fill="#000000" transform="translate(0,0)"/>
<path d="" fill="#FFFFFF" transform="translate(0,0)"/>
<path d="" fill="#FFFFFF" transform="translate(0,0)"/>
<path d="" fill="#FFFFFF" transform="translate(0,0)"/>
<path d="" fill="#FFFFFF" transform="translate(0,0)"/>
<path d="" fill="#000000" transform="translate(0,0)"/>
<path d="" fill="#FFFFFF" transform="translate(0,0)"/>
<path d="" fill="#000000" transform="translate(0,0)"/>
<path d="" fill="#000000" transform="translate(0,0)"/>
<path d="" fill="#000000" transform="translate(0,0)"/>
<path d="" fill="#000000" transform="translate(0,0)"/>
<path d="" fill="#000000" transform="translate(0,0)"/>
<path d="" fill="#FFFFFF" transform="translate(0,0)"/>
<path d="" fill="#FFFFFF" transform="translate(0,0)"/>
<path d="" fill="#000000" transform="translate(0,0)"/>
<path d="" fill="#FFFFFF" transform="translate(0,0)"/>
<path d="" fill="#FFFFFF" transform="translate(0,0)"/>
<path d="" fill="#FFFFFF" transform="translate(0,0)"/>
<path d="" fill="#000000" transform="translate(0,0)"/>
<path d="" fill="#000000" transform="translate(0,0)"/>
<path d="" fill="#000000" transform="translate(0,0)"/>
<path d="" fill="#000000" transform="translate(0,0)"/>
<path d="" fill="#FFFFFF" transform="translate(0,0)"/>
<path d="" fill="#FFFFFF" transform="translate(0,0)"/>
<path d="" fill="#000000" transform="translate(0,0)"/>
<path d="" fill="#000000" transform="translate(0,0)"/>
<path d="" fill="#000000" transform="translate(0,0)"/>
<path d="" fill="#FFFFFF" transform="translate(0,0)"/>
<path d="" fill="#000000" transform="translate(0,0)"/>
<path d="" fill="#FFFFFF" transform="translate(0,0)"/>
<path d="" fill="#000000" transform="translate(0,0)"/>
<path d="" fill="#000000" transform="translate(0,0)"/>
<path d="" fill="#FFFFFF" transform="translate(0,0)"/>
<path d="" fill="#FFFFFF" transform="translate(0,0)"/>
<path d="" fill="#000000" transform="translate(0,0)"/>
<path d="" fill="#000000" transform="translate(0,0)"/>
<path d="" fill="#000000" transform="translate(0,0)"/>
<path d="" fill="#FFFFFF" transform="translate(0,0)"/>
<path d="" fill="#FFFFFF" transform="translate(0,0)"/>
<path d="" fill="#FFFFFF" transform="translate(0,0)"/>
<path d="" fill="#FFFFFF" transform="translate(0,0)"/>
<path d="" fill="#FFFFFF" transform="translate(0,0)"/>
<path d="" fill="#000000" transform="translate(0,0)"/>
<path d="" fill="#FFFFFF" transform="translate(0,0)"/>
<path d="" fill="#FFFFFF" transform="translate(0,0)"/>
</svg>
